<mxfile host="app.diagrams.net" modified="2023-09-27T10:34:24.908Z" agent="Mozilla/5.0 (X11; Linux x86_64; rv:102.0) Gecko/20100101 Firefox/102.0" etag="Qc-h0YTLjveCvWLRLXBV" version="21.8.2" type="device">
  <diagram name="PÃ¡gina-1" id="h9YxQk8qtblfaWXYjZ7l">
    <mxGraphModel dx="819" dy="454" grid="1" gridSize="10" guides="1" tooltips="1" connect="1" arrows="1" fold="1" page="1" pageScale="1" pageWidth="827" pageHeight="1169" math="0" shadow="0">
      <root>
        <mxCell id="0" />
        <mxCell id="1" parent="0" />
        <mxCell id="POwnjkYcqwuNxn_GO9EP-1" value="JUGADOR" style="rounded=0;whiteSpace=wrap;html=1;" vertex="1" parent="1">
          <mxGeometry x="350" y="380" width="120" height="60" as="geometry" />
        </mxCell>
        <mxCell id="POwnjkYcqwuNxn_GO9EP-2" value="&lt;u&gt;codi&lt;/u&gt;" style="ellipse;whiteSpace=wrap;html=1;" vertex="1" parent="1">
          <mxGeometry x="300" y="300" width="70" height="40" as="geometry" />
        </mxCell>
        <mxCell id="POwnjkYcqwuNxn_GO9EP-3" value="nom" style="ellipse;whiteSpace=wrap;html=1;" vertex="1" parent="1">
          <mxGeometry x="414" y="300" width="70" height="40" as="geometry" />
        </mxCell>
        <mxCell id="POwnjkYcqwuNxn_GO9EP-4" value="" style="endArrow=none;html=1;rounded=0;entryX=0.296;entryY=0.017;entryDx=0;entryDy=0;entryPerimeter=0;" edge="1" parent="1" source="POwnjkYcqwuNxn_GO9EP-2" target="POwnjkYcqwuNxn_GO9EP-1">
          <mxGeometry width="50" height="50" relative="1" as="geometry">
            <mxPoint x="420" y="480" as="sourcePoint" />
            <mxPoint x="470" y="430" as="targetPoint" />
          </mxGeometry>
        </mxCell>
        <mxCell id="POwnjkYcqwuNxn_GO9EP-5" value="" style="endArrow=none;html=1;rounded=0;entryX=0.721;entryY=-0.015;entryDx=0;entryDy=0;entryPerimeter=0;exitX=0.5;exitY=1;exitDx=0;exitDy=0;" edge="1" parent="1" source="POwnjkYcqwuNxn_GO9EP-3" target="POwnjkYcqwuNxn_GO9EP-1">
          <mxGeometry width="50" height="50" relative="1" as="geometry">
            <mxPoint x="360" y="348" as="sourcePoint" />
            <mxPoint x="396" y="391" as="targetPoint" />
          </mxGeometry>
        </mxCell>
        <mxCell id="POwnjkYcqwuNxn_GO9EP-6" value="EQUIP" style="rounded=0;whiteSpace=wrap;html=1;" vertex="1" parent="1">
          <mxGeometry x="770" y="380" width="120" height="60" as="geometry" />
        </mxCell>
        <mxCell id="POwnjkYcqwuNxn_GO9EP-7" value="&lt;u&gt;codi&lt;/u&gt;" style="ellipse;whiteSpace=wrap;html=1;" vertex="1" parent="1">
          <mxGeometry x="720" y="300" width="70" height="40" as="geometry" />
        </mxCell>
        <mxCell id="POwnjkYcqwuNxn_GO9EP-8" value="nom" style="ellipse;whiteSpace=wrap;html=1;" vertex="1" parent="1">
          <mxGeometry x="834" y="300" width="70" height="40" as="geometry" />
        </mxCell>
        <mxCell id="POwnjkYcqwuNxn_GO9EP-9" value="" style="endArrow=none;html=1;rounded=0;entryX=0.296;entryY=0.017;entryDx=0;entryDy=0;entryPerimeter=0;" edge="1" source="POwnjkYcqwuNxn_GO9EP-7" target="POwnjkYcqwuNxn_GO9EP-6" parent="1">
          <mxGeometry width="50" height="50" relative="1" as="geometry">
            <mxPoint x="840" y="480" as="sourcePoint" />
            <mxPoint x="890" y="430" as="targetPoint" />
          </mxGeometry>
        </mxCell>
        <mxCell id="POwnjkYcqwuNxn_GO9EP-10" value="" style="endArrow=none;html=1;rounded=0;entryX=0.721;entryY=-0.015;entryDx=0;entryDy=0;entryPerimeter=0;exitX=0.5;exitY=1;exitDx=0;exitDy=0;" edge="1" source="POwnjkYcqwuNxn_GO9EP-8" target="POwnjkYcqwuNxn_GO9EP-6" parent="1">
          <mxGeometry width="50" height="50" relative="1" as="geometry">
            <mxPoint x="780" y="348" as="sourcePoint" />
            <mxPoint x="816" y="391" as="targetPoint" />
          </mxGeometry>
        </mxCell>
        <mxCell id="POwnjkYcqwuNxn_GO9EP-11" value="" style="triangle;whiteSpace=wrap;html=1;" vertex="1" parent="1">
          <mxGeometry x="610" y="370" width="60" height="80" as="geometry" />
        </mxCell>
        <mxCell id="POwnjkYcqwuNxn_GO9EP-13" value="" style="triangle;whiteSpace=wrap;html=1;rotation=-180;fillColor=#000000;" vertex="1" parent="1">
          <mxGeometry x="550" y="370" width="60" height="80" as="geometry" />
        </mxCell>
        <mxCell id="POwnjkYcqwuNxn_GO9EP-14" value="" style="endArrow=none;html=1;rounded=0;entryX=1;entryY=0.5;entryDx=0;entryDy=0;exitX=1;exitY=0.5;exitDx=0;exitDy=0;" edge="1" parent="1" source="POwnjkYcqwuNxn_GO9EP-1" target="POwnjkYcqwuNxn_GO9EP-13">
          <mxGeometry width="50" height="50" relative="1" as="geometry">
            <mxPoint x="550" y="530" as="sourcePoint" />
            <mxPoint x="600" y="480" as="targetPoint" />
          </mxGeometry>
        </mxCell>
        <mxCell id="POwnjkYcqwuNxn_GO9EP-15" value="" style="endArrow=none;html=1;rounded=0;entryX=-0.018;entryY=0.414;entryDx=0;entryDy=0;exitX=1;exitY=0.5;exitDx=0;exitDy=0;entryPerimeter=0;" edge="1" parent="1" source="POwnjkYcqwuNxn_GO9EP-11" target="POwnjkYcqwuNxn_GO9EP-6">
          <mxGeometry width="50" height="50" relative="1" as="geometry">
            <mxPoint x="480" y="420" as="sourcePoint" />
            <mxPoint x="560" y="420" as="targetPoint" />
          </mxGeometry>
        </mxCell>
        <mxCell id="POwnjkYcqwuNxn_GO9EP-16" value="JUGA EN" style="text;html=1;strokeColor=none;fillColor=none;align=center;verticalAlign=middle;whiteSpace=wrap;rounded=0;" vertex="1" parent="1">
          <mxGeometry x="580" y="340" width="60" height="30" as="geometry" />
        </mxCell>
      </root>
    </mxGraphModel>
  </diagram>
</mxfile>
